<svg width="44" height="36" viewBox="0 0 44 36" fill="none" xmlns="http://www.w3.org/2000/svg">
<rect width="44" height="36" rx="14" fill="#F6BDB4"/>
<path d="M15.883 24.6528C15.583 24.4528 15.325 24.1978 15.023 23.8368C14.8662 23.6449 14.7109 23.4519 14.557 23.2578C14.094 22.6828 13.802 22.4178 13.5 22.3088C13.2503 22.2191 13.0464 22.034 12.9332 21.794C12.8201 21.5541 12.8068 21.279 12.8965 21.0293C12.9861 20.7796 13.1713 20.5757 13.4112 20.4625C13.6512 20.3494 13.9263 20.3361 14.176 20.4258C14.928 20.6958 15.437 21.1608 16.123 22.0138C16.029 21.8968 16.463 22.4408 16.556 22.5528C16.746 22.7798 16.886 22.9178 16.996 22.9908C17.2 23.1278 17.583 23.1868 18.146 23.1308C18.169 22.7488 18.24 22.3778 18.348 22.0358C15.38 21.3098 13.7 19.3958 13.7 15.6398C13.7 14.3998 14.07 13.2838 14.758 12.3478C14.54 11.4538 14.573 10.3728 15.06 9.15578C15.1152 9.01811 15.2005 8.89447 15.3094 8.79381C15.4184 8.69315 15.5484 8.61799 15.69 8.57378C15.771 8.54978 15.817 8.53878 15.898 8.52678C16.701 8.40378 17.835 8.69678 19.313 9.62278C20.1938 9.41686 21.0954 9.31351 22 9.31478C22.912 9.31478 23.818 9.41878 24.684 9.62278C26.161 8.68978 27.297 8.39678 28.106 8.52678C28.191 8.53978 28.263 8.55678 28.324 8.57678C28.4628 8.62256 28.5899 8.69821 28.6963 8.79842C28.8028 8.89863 28.8859 9.02095 28.94 9.15678C29.427 10.3728 29.46 11.4538 29.242 12.3468C29.933 13.2828 30.3 14.3918 30.3 15.6398C30.3 19.3968 28.626 21.3048 25.658 22.0318C25.783 22.4468 25.848 22.9108 25.848 23.4118C25.8481 24.3171 25.8441 25.2225 25.836 26.1278C26.0606 26.1768 26.2614 26.3016 26.4047 26.4813C26.548 26.6611 26.625 26.8847 26.6228 27.1145C26.6206 27.3444 26.5392 27.5664 26.3925 27.7433C26.2457 27.9202 26.0425 28.0412 25.817 28.0858C24.678 28.3138 23.834 27.5538 23.834 26.5608L23.836 26.1148L23.841 25.4098C23.846 24.7018 23.848 24.0718 23.848 23.4118C23.848 22.7148 23.665 22.2598 23.423 22.0518C22.762 21.4818 23.097 20.3968 23.963 20.2998C26.93 19.9668 28.3 18.8178 28.3 15.6398C28.3 14.6848 27.988 13.8958 27.387 13.2358C27.2604 13.097 27.1754 12.9254 27.1418 12.7406C27.1082 12.5558 27.1273 12.3652 27.197 12.1908C27.363 11.7768 27.434 11.2338 27.293 10.5768L27.283 10.5798C26.792 10.7188 26.173 11.0198 25.425 11.5288C25.3044 11.6106 25.1673 11.6651 25.0234 11.6885C24.8795 11.7118 24.7323 11.7033 24.592 11.6638C23.7479 11.4301 22.8758 11.3126 22 11.3148C21.11 11.3148 20.228 11.4338 19.408 11.6648C19.2682 11.704 19.1215 11.7124 18.9782 11.6892C18.8349 11.6661 18.6983 11.612 18.578 11.5308C17.826 11.0238 17.204 10.7238 16.71 10.5838C16.566 11.2368 16.637 11.7778 16.802 12.1908C16.8718 12.3651 16.8911 12.5556 16.8577 12.7404C16.8242 12.9253 16.7394 13.0969 16.613 13.2358C16.016 13.8898 15.7 14.6938 15.7 15.6398C15.7 18.8118 17.071 19.9678 20.022 20.2998C20.887 20.3968 21.223 21.4768 20.566 22.0478C20.374 22.2158 20.137 22.7798 20.137 23.4118V26.5618C20.137 27.5478 19.302 28.2868 18.177 28.0898C17.9487 28.0497 17.7415 27.9316 17.5907 27.7557C17.4399 27.5798 17.3548 27.3569 17.3501 27.1252C17.3454 26.8936 17.4213 26.6674 17.5648 26.4855C17.7083 26.3036 17.9106 26.1771 18.137 26.1278V25.1378C17.227 25.1988 16.475 25.0498 15.883 24.6528Z" fill="#001018"/>
</svg>
