<svg width="35" height="39" viewBox="0 0 35 39" fill="none" xmlns="http://www.w3.org/2000/svg">
<path d="M33.0555 11.7131L21.3889 1.48541C20.3194 0.528841 18.9349 0 17.5001 0C16.0652 0 14.6807 0.528841 13.6112 1.48541L1.94461 11.7131C1.327 12.2655 0.834151 12.9431 0.498876 13.7008C0.163602 14.4585 -0.00640215 15.279 0.000184321 16.1075V33.1019C0.000184321 34.6489 0.614762 36.1327 1.70872 37.2266C2.80267 38.3206 4.28639 38.9351 5.83348 38.9351H29.1666C30.7137 38.9351 32.1975 38.3206 33.2914 37.2266C34.3854 36.1327 34.9999 34.6489 34.9999 33.1019V16.0881C35.0038 15.2628 34.8324 14.4461 34.4972 13.6919C34.1621 12.9378 33.6707 12.2633 33.0555 11.7131ZM21.3889 35.0463H13.6112V25.3241C13.6112 24.8084 13.8161 24.3139 14.1807 23.9492C14.5454 23.5846 15.0399 23.3797 15.5556 23.3797H19.4445C19.9602 23.3797 20.4548 23.5846 20.8194 23.9492C21.1841 24.3139 21.3889 24.8084 21.3889 25.3241V35.0463ZM31.1111 33.1019C31.1111 33.6175 30.9062 34.1121 30.5416 34.4768C30.1769 34.8414 29.6823 35.0463 29.1666 35.0463H25.2778V25.3241C25.2778 23.777 24.6632 22.2933 23.5693 21.1994C22.4753 20.1054 20.9916 19.4908 19.4445 19.4908H15.5556C14.0085 19.4908 12.5248 20.1054 11.4309 21.1994C10.3369 22.2933 9.72234 23.777 9.72234 25.3241V35.0463H5.83348C5.31778 35.0463 4.82321 34.8414 4.45856 34.4768C4.0939 34.1121 3.88905 33.6175 3.88905 33.1019V16.0881C3.8894 15.812 3.94853 15.5392 4.06252 15.2877C4.17651 15.0363 4.34274 14.812 4.55015 14.6298L16.2167 4.4215C16.5716 4.10977 17.0277 3.93786 17.5001 3.93786C17.9724 3.93786 18.4285 4.10977 18.7834 4.4215L30.45 14.6298C30.6574 14.812 30.8236 15.0363 30.9376 15.2877C31.0516 15.5392 31.1107 15.812 31.1111 16.0881V33.1019Z" fill="#010105"/>
</svg>
