<svg width="150" height="150" viewBox="0 0 150 150" fill="none" xmlns="http://www.w3.org/2000/svg">
<path d="M20 1H130C140.493 1 149 9.50659 149 20V130C149 140.493 140.493 149 130 149H20C9.50659 149 1 140.493 1 130V20C1 9.50659 9.50659 1 20 1Z" stroke="#3A3A41" stroke-width="2"/>
<path d="M84.3209 39.7046C81.3332 39.2128 76.9603 38.9862 73.9919 39.0007C71.2097 39.0039 68.4326 39.2393 65.6895 39.7046C58.3385 40.9903 56.9998 43.6742 56.9998 48.6305V54.429H74.9996V57.0004H51.1531C44.4739 57.0004 39.0531 64.983 39 74.8588C39 74.9054 39 74.952 39 75.0002C38.9977 76.7269 39.1662 78.4495 39.5031 80.143C40.9961 87.5808 45.6471 93 51.1531 93H54.4284V84.3215C54.4284 79.2912 57.7776 74.6868 63.2676 73.6984L64.8538 73.5008H84.3209C85.1385 73.504 85.9528 73.3958 86.7412 73.1793C88.5438 72.698 90.136 71.6325 91.2684 70.1497C92.4008 68.6668 93.0095 66.8504 92.9994 64.9846V48.6305C92.9994 43.9827 89.033 40.4776 84.3209 39.7046ZM65.1849 50.813C64.5364 50.8152 63.902 50.6248 63.3619 50.266C62.8218 49.9071 62.4005 49.3959 62.1513 48.7973C61.9021 48.1986 61.8363 47.5395 61.9623 46.9034C62.0883 46.2673 62.4003 45.683 62.8588 45.2245C63.3173 44.7659 63.9016 44.4539 64.5377 44.328C65.1738 44.202 65.833 44.2678 66.4316 44.517C67.0303 44.7661 67.5414 45.1875 67.9003 45.7275C68.2592 46.2676 68.4496 46.9021 68.4473 47.5505C68.4475 47.979 68.3633 48.4034 68.1994 48.7993C68.0355 49.1952 67.7952 49.5549 67.4923 49.8579C67.1893 50.1609 66.8295 50.4012 66.4336 50.5651C66.0377 50.729 65.6134 50.8132 65.1849 50.813Z" fill="black"/>
<path d="M110.241 68.7325C108.521 61.8845 104.068 57.0005 98.8461 57.0005H95.9999V64.6263C95.9999 70.9857 91.8214 75.5901 86.7203 76.3792C86.2051 76.4591 85.6845 76.4994 85.163 76.4997H65.6911C64.8652 76.4989 64.0426 76.6042 63.2435 76.8131C59.658 77.7549 56.9998 80.7377 56.9998 84.606V100.962C56.9998 105.622 61.683 108.355 66.2777 109.69C71.7757 111.289 77.7655 111.578 84.345 109.69C88.7148 108.441 92.9994 105.916 92.9994 100.962V95.5714H74.9996V93H98.8461C103.577 93 107.677 88.9935 109.686 83.1468C110.568 80.5218 111.012 77.7695 110.999 75.0003C111.004 72.8878 110.749 70.7828 110.241 68.7325ZM84.7243 98.7857C85.3727 98.7835 86.0072 98.9739 86.5473 99.3327C87.0874 99.6916 87.5087 100.203 87.7579 100.801C88.0071 101.4 88.0728 102.059 87.9469 102.695C87.8209 103.331 87.5089 103.916 87.0504 104.374C86.5919 104.833 86.0075 105.145 85.3714 105.271C84.7354 105.397 84.0762 105.331 83.4775 105.082C82.8789 104.833 82.3677 104.411 82.0089 103.871C81.65 103.331 81.4596 102.697 81.4618 102.048C81.4616 101.62 81.5459 101.195 81.7097 100.799C81.8736 100.403 82.1139 100.044 82.4169 99.7408C82.7199 99.4378 83.0796 99.1975 83.4756 99.0336C83.8715 98.8697 84.2958 98.7855 84.7243 98.7857Z" fill="black"/>
</svg>
