<svg width="144" height="144" viewBox="0 0 144 144" fill="none" xmlns="http://www.w3.org/2000/svg">
<path d="M71.88 83.952C78.534 83.952 83.928 78.5579 83.928 71.904C83.928 65.25 78.534 59.856 71.88 59.856C65.2261 59.856 59.832 65.25 59.832 71.904C59.832 78.5579 65.2261 83.952 71.88 83.952Z" fill="#00D8FF"/>
<path d="M71.88 99.5039C54.96 99.5039 40.176 97.5119 29.112 93.7199C21.936 91.2719 15.84 88.0079 11.496 84.2879C6.888 80.3519 4.44 76.0559 4.44 71.9039C4.44 63.9359 13.176 56.1359 27.84 51.0479C39.84 46.8719 55.488 44.5439 71.856 44.5439C87.936 44.5439 103.368 46.7999 115.296 50.9279C122.28 53.3279 128.16 56.4479 132.336 59.9039C136.872 63.6959 139.272 67.8479 139.272 71.9039C139.272 80.1839 129.504 88.5599 113.76 93.7679C102.624 97.4639 87.744 99.5039 71.88 99.5039ZM71.88 50.3039C56.352 50.3039 40.992 52.5599 29.76 56.4719C16.272 61.1759 10.224 67.6079 10.224 71.9039C10.224 76.3679 16.728 83.3999 30.984 88.2719C41.448 91.8479 55.608 93.7439 71.88 93.7439C87.144 93.7439 101.376 91.8239 111.96 88.2959C126.768 83.3759 133.536 76.3439 133.536 71.9039C133.536 69.6239 131.808 66.9359 128.664 64.3199C125.04 61.2959 119.76 58.5359 113.448 56.3519C102.096 52.4639 87.336 50.3039 71.88 50.3039Z" fill="#00D8FF"/>
<path d="M44.544 131.952C42.096 131.952 39.936 131.424 38.112 130.368C31.224 126.384 28.824 114.912 31.728 99.6718C34.104 87.1678 39.912 72.4798 48.096 58.2958C56.136 44.3758 65.784 32.1358 75.312 23.8558C80.88 19.0078 86.52 15.4558 91.608 13.5838C97.152 11.5438 101.952 11.5438 105.456 13.5598C112.632 17.6878 115.008 30.3598 111.648 46.5838C109.272 58.1038 103.608 71.9998 95.688 85.7518C87.24 100.392 78.12 112.2 69.312 119.904C63.6 124.896 57.72 128.544 52.344 130.44C49.536 131.448 46.896 131.952 44.544 131.952ZM50.568 59.7358L53.064 61.1758C45.312 74.6158 39.576 89.0398 37.368 100.752C34.704 114.792 37.272 123.24 40.968 125.376C41.88 125.904 43.08 126.192 44.544 126.192C49.32 126.192 56.832 123.168 65.52 115.584C73.848 108.312 82.56 96.9838 90.696 82.8958C98.328 69.6718 103.752 56.3758 106.008 45.4558C109.152 30.1678 106.44 20.8078 102.576 18.5758C100.608 17.4478 97.416 17.5918 93.576 19.0078C89.136 20.6398 84.12 23.8318 79.08 28.2238C70.032 36.0958 60.792 47.8078 53.064 61.1998L50.568 59.7358Z" fill="#00D8FF"/>
<path d="M99.216 132.024C92.688 132.024 84.408 128.088 75.768 120.648C66.12 112.344 56.304 99.9839 48.096 85.7999C40.032 71.8799 34.272 57.4079 31.848 44.9999C30.432 37.7519 30.168 31.1039 31.08 25.7519C32.088 19.9199 34.464 15.7679 37.992 13.7279C45.144 9.57593 57.312 13.8479 69.696 24.8639C78.48 32.6639 87.696 44.5199 95.64 58.2479C104.112 72.8879 109.8 86.6879 112.056 98.1599C113.52 105.6 113.76 112.512 112.728 118.128C111.624 124.104 109.128 128.352 105.528 130.44C103.728 131.496 101.592 132.024 99.216 132.024ZM53.088 82.9199C60.864 96.3599 70.512 108.528 79.536 116.28C90.36 125.592 98.952 127.608 102.672 125.448C106.536 123.216 109.368 114.072 106.44 99.2879C104.28 88.4399 98.832 75.2399 90.672 61.1519C83.016 47.9279 74.208 36.5759 65.88 29.1839C54.216 18.8159 44.76 16.4879 40.896 18.7199C38.928 19.8479 37.464 22.7039 36.768 26.7359C35.976 31.3919 36.216 37.3439 37.512 43.8959C39.816 55.6799 45.336 69.5279 53.088 82.9199Z" fill="#00D8FF"/>
</svg>
